P3
25 26
255
181 179 167
189 186 179
189 183 183
196 191 195
194 196 195
196 198 197
206 206 208
214 214 216
218 218 218
215 214 212
218 210 208
224 215 216
194 192 197
110 111 116
91 95 98
96 100 101
100 106 106
100 104 105
104 102 107
118 111 118
124 115 120
156 146 145
250 243 235
255 247 236
255 245 233
255 242 231
180 177 168
187 184 177
185 181 180
196 191 195
193 195 194
215 216 211
142 137 131
69 60 53
76 65 61
170 157 151
241 228 220
232 219 211
207 194 186
110 100 91
107 97 87
100 92 81
108 102 90
115 106 97
121 111 102
128 115 109
131 120 118
120 110 108
219 212 204
255 250 240
255 247 238
255 245 237
186 185 180
186 182 179
190 186 187
200 198 199
207 209 206
30 28 16
15 0 0
50 22 0
61 28 11
34 2 0
66 43 25
213 189 163
173 140 105
155 117 80
168 134 97
156 123 88
156 126 92
130 100 66
116 86 52
71 45 18
43 25 11
108 97 91
150 147 140
255 255 250
254 246 244
254 242 244
182 181 177
189 185 182
197 191 193
217 209 206
31 22 7
52 32 5
124 85 44
129 78 35
117 58 26
102 49 18
59 23 0
92 58 20
237 193 144
207 160 106
218 174 125
219 175 126
219 173 121
216 169 117
213 169 120
218 181 139
198 171 141
41 25 2
68 60 49
230 225 219
255 251 249
252 242 243
191 186 182
195 190 187
206 197 198
125 107 95
59 25 0
174 123 68
169 99 39
168 88 27
173 91 35
160 84 34
115 58 13
45 1 0
193 150 97
237 196 140
105 68 16
218 177 121
231 178 112
226 168 104
201 145 94
171 123 75
231 196 138
238 212 163
52 34 12
110 95 88
255 253 244
255 248 238
194 189 185
194 186 183
212 198 195
58 30 9
161 109 52
180 108 34
169 83 10
182 88 18
184 89 21
184 99 35
153 84 29
104 48 0
88 47 0
242 207 153
230 198 141
140 100 38
242 188 116
184 125 55
181 124 69
200 147 95
195 151 86
178 142 80
236 204 166
24 2 0
220 208 194
255 255 244
189 185 182
206 197 190
151 133 119
103 64 31
195 126 61
179 92 13
178 88 12
179 88 17
185 93 28
178 93 29
183 103 40
136 71 15
65 22 0
193 161 114
244 213 149
166 128 57
233 182 116
192 137 73
206 154 97
178 127 72
174 121 67
192 141 86
243 197 138
155 122 77
109 96 80
255 252 251
190 189 187
206 196 187
122 96 73
145 98 54
183 106 38
177 87 9
185 99 26
169 84 17
157 73 11
172 90 30
175 92 26
161 91 32
71 26 0
160 127 82
248 211 141
181 140 61
164 115 46
243 193 130
172 126 66
166 117 59
200 145 89
199 143 82
190 138 65
247 208 149
25 13 0
255 255 251
186 187 189
214 204 194
93 57 25
182 125 72
173 98 30
178 96 23
165 87 23
141 66 8
136 63 10
158 83 28
182 101 38
172 97 39
102 53 12
128 90 43
245 199 124
250 202 117
162 115 37
241 194 124
162 118 53
180 136 73
221 171 102
201 147 75
167 114 36
249 211 146
99 88 58
214 216 203
192 196 199
183 171 159
96 52 13
197 132 74
161 86 18
180 103 33
137 63 2
167 96 42
142 72 21
165 92 39
171 90 27
155 80 22
137 88 45
101 61 12
255 205 132
255 204 121
180 131 55
242 195 125
205 161 96
219 175 110
217 170 98
218 169 93
211 159 83
247 209 146
140 127 92
169 171 149
194 198 199
164 150 137
129 78 35
198 127 63
162 88 15
164 87 15
142 66 8
166 90 38
138 64 15
174 97 45
174 93 30
155 83 24
144 100 55
82 44 0
245 196 129
230 176 104
129 78 13
243 193 132
162 114 52
229 184 119
196 151 84
170 125 57
157 110 42
241 202 145
168 150 114
139 132 106
194 198 199
158 142 127
139 87 40
202 128 63
171 97 24
161 84 14
149 73 15
165 88 36
141 65 16
175 95 42
180 97 31
167 96 32
155 111 64
87 51 3
223 174 108
231 176 109
140 85 28
226 174 117
157 105 45
215 167 103
212 168 103
163 119 54
210 165 100
247 208 153
175 153 116
124 110 81
199 199 199
165 149 134
139 88 45
204 134 74
179 104 37
157 82 15
157 82 24
149 73 21
158 80 32
175 94 39
188 104 32
177 103 32
156 110 60
86 46 0
231 178 112
240 181 111
134 78 21
222 167 113
205 151 91
221 170 107
190 146 83
194 153 89
160 115 50
232 193 136
176 153 112
126 111 80
200 200 200
149 133 118
160 113 71
209 143 83
176 102 39
147 69 7
163 88 31
147 74 21
135 58 4
183 103 42
183 100 22
179 105 32
157 109 60
84 43 0
238 187 121
255 198 127
146 90 31
232 175 120
145 89 32
213 161 101
202 158 97
152 111 47
211 166 99
233 194 137
157 137 102
130 118 92
197 199 198
160 146 133
163 118 77
212 146 88
177 101 39
166 88 26
155 79 27
131 58 5
150 74 12
175 97 25
167 84 8
189 116 47
156 105 58
107 66 22
243 199 136
234 186 114
144 89 24
228 169 109
212 155 100
199 147 90
208 162 102
205 161 98
170 125 58
236 201 147
122 108 82
154 152 140
190 189 185
211 198 182
117 79 42
199 139 87
189 111 49
141 57 0
172 92 39
163 88 31
157 82 14
172 96 20
172 93 16
173 102 36
135 86 43
124 85 42
249 209 147
226 179 107
154 97 26
236 175 108
190 128 69
159 103 44
208 158 95
180 132 66
167 120 50
234 198 146
77 65 49
191 193 192
195 188 178
214 201 185
113 86 57
172 124 78
190 110 47
179 86 17
176 91 27
162 80 20
160 85 17
166 92 21
159 82 10
174 106 43
123 78 37
141 103 64
240 198 138
154 104 31
191 129 52
238 170 95
241 172 103
194 129 63
171 117 47
235 185 114
217 167 94
222 185 132
13 0 0
249 249 255
196 187 178
209 199 187
126 111 92
122 88 53
203 133 74
180 92 21
175 86 18
164 79 12
155 76 7
165 91 20
174 101 32
184 122 61
86 44 2
189 154 112
229 183 124
169 115 45
237 175 100
227 163 89
225 160 94
233 172 109
194 139 74
229 178 112
227 182 115
148 114 68
71 56 49
255 252 255
197 191 191
196 191 188
176 173 168
49 31 11
183 129 83
190 114 52
174 87 16
179 91 17
163 76 5
176 96 27
169 98 32
148 92 33
94 56 9
237 200 155
227 172 116
236 172 111
222 162 100
212 156 95
221 170 115
172 122 71
196 143 91
201 154 102
213 179 131
20 0 0
213 196 188
255 250 254
182 182 182
194 194 196
208 209 211
87 77 68
90 55 23
197 144 90
171 101 31
168 88 15
166 87 20
167 96 34
186 129 74
64 20 0
170 138 91
178 142 94
147 95 45
220 162 112
159 107 57
156 112 65
156 118 79
134 96 59
194 150 111
208 170 133
57 34 3
130 115 94
255 252 243
255 244 238
186 191 187
186 188 185
197 195 198
217 209 206
30 17 0
77 51 14
172 123 65
175 115 52
173 112 57
156 104 57
63 31 0
103 79 43
192 164 124
123 92 48
167 128 87
145 106 67
142 103 70
133 99 71
129 103 78
155 131 107
186 156 132
47 20 1
129 115 106
249 242 234
242 236 224
250 244 232
178 185 178
190 195 191
190 188 191
205 201 202
203 200 193
28 17 0
36 8 0
82 45 1
73 35 0
25 0 0
91 76 55
143 132 114
107 91 65
156 137 107
143 122 93
150 126 100
167 142 122
164 143 126
87 71 58
92 78 67
88 72 59
185 172 164
229 223 225
239 237 240
244 244 234
246 247 231
182 184 179
185 187 184
184 188 189
196 197 201
191 189 192
218 213 210
136 127 118
90 82 71
109 100 91
189 180 173
205 197 195
197 191 191
202 201 197
200 200 192
210 206 195
221 213 202
221 208 200
230 217 211
231 221 219
231 223 221
228 224 223
214 212 215
229 226 235
239 240 245
238 245 238
236 246 235
179 181 176
184 189 185
178 187 186
193 198 201
196 195 200
194 193 198
200 203 210
198 203 209
193 196 201
184 185 189
187 185 188
187 185 190
186 191 197
183 191 194
198 204 202
198 199 194
210 204 204
210 204 206
214 209 213
217 216 221
204 209 213
214 221 227
235 238 247
239 244 250
233 243 242
234 247 240
179 181 180
179 184 180
178 187 182
182 191 186
190 195 191
192 196 197
188 191 200
184 187 196
179 180 184
180 180 180
189 188 183
186 187 182
186 189 194
185 193 196
193 199 197
197 202 198
205 203 204
209 204 208
212 210 215
207 210 215
205 214 219
227 238 242
232 241 246
231 240 245
232 242 244
232 242 243
